<svg width="128" height="128" viewBox="0 0 128 128" fill="none" xmlns="http://www.w3.org/2000/svg">
<g clip-path="url(#clip0_21_302)">
<path d="M127.696 49.9413C127.243 49.3386 126.789 48.8853 124.523 48.736C123.92 48.736 122.107 48.5813 118.933 48.5813C110.613 48.5813 104.875 51.152 102 56.1386C102.757 51.152 97.9199 48.5813 87.3386 48.5813C74.9439 48.5813 67.0826 53.568 63.9093 63.696C62.7039 67.4773 62.7039 70.5013 63.6106 72.9226H60.5866C58.3199 73.0666 55.2959 73.2213 53.3333 73.2213C48.7999 73.2213 45.9199 72.464 44.8639 70.9546C43.9573 69.5946 43.9573 67.024 45.1679 63.2426C47.1306 57.0453 51.8186 54.3253 59.3759 54.3253C63.3066 54.3253 67.0826 54.7786 67.0826 54.7786C67.5359 54.7786 67.84 54.176 67.84 53.7226L67.6906 53.2693L67.3866 51.152C67.2373 49.792 66.1759 49.0346 64.3626 48.736C62.7039 48.5813 61.3386 48.5813 59.5253 48.5813H59.3759C49.5519 48.5813 42.5973 51.9093 38.8213 58.256C40.1813 51.7546 35.6426 48.5813 25.2159 48.5813C19.3226 48.5813 15.0826 48.736 12.6666 49.0346C10.7039 49.3386 9.49328 50.096 9.03994 51.456L8.13328 54.176C7.98394 54.6293 8.28794 54.9333 8.89061 54.9333C9.34394 54.9333 11.1573 54.6293 14.1813 54.4746C17.1478 54.224 20.1219 54.0728 23.0986 54.0213C28.8426 54.0213 31.4133 55.536 30.5066 58.4053C30.3519 59.0133 29.8986 59.4666 29.1466 59.616C23.7066 60.5226 19.3226 61.1306 16.1439 61.584C7.07728 62.7893 1.78661 65.5093 0.426609 70.048C-1.54139 76.2453 3.29594 79.264 14.9333 79.264C20.6826 79.264 25.6693 78.9653 29.5999 78.208C31.8666 77.7546 33.0773 77.3013 33.5306 75.792L35.6426 68.8373C35.4933 75.792 40.1759 79.264 50.1546 79.264C54.3893 79.264 58.4693 79.1146 60.4319 78.8106C62.3999 78.512 63.4559 78.0586 63.9093 76.544L64.3626 74.432C66.4799 77.7546 71.1679 79.4186 78.2719 79.4186C85.8293 79.4186 90.2133 79.264 91.4186 78.8106C91.8563 78.7138 92.2639 78.5123 92.6067 78.2234C92.9494 77.9345 93.217 77.5669 93.3866 77.152L93.5359 76.6986L94.4426 73.824C94.5973 73.3706 94.2933 73.0666 93.6853 73.0666L88.8533 73.3706C85.6746 73.5253 83.1093 73.6746 81.2906 73.6746C77.8186 73.6746 75.5519 73.3706 74.1866 72.9173C72.2239 72.16 71.3173 70.8 71.4666 68.5333L86.7359 66.5706C93.5359 65.664 98.2239 63.5466 100.491 60.224L95.1999 77.904C95.0506 78.208 95.1999 78.512 95.3493 78.6613C95.5039 78.8106 95.8026 78.9653 96.4106 78.9653H102.757C103.813 78.9653 104.267 78.3573 104.421 77.904L110.011 58.4053C110.768 55.84 113.035 54.6293 117.264 54.6293C121.051 54.6293 123.771 54.6293 125.584 54.7786H125.733C126.037 54.7786 126.64 54.6293 127.093 53.872L128 51.152C128 50.6986 128 50.2453 127.696 49.9413ZM25.8186 73.2266C23.8559 73.5306 20.9813 73.68 17.3546 73.68C10.8533 73.68 8.13328 72.32 8.89061 69.7493C9.49328 67.936 11.1573 66.7253 13.8773 66.4213L28.5439 64.4586L25.8186 73.2266ZM93.3866 57.4933C92.7822 59.4595 89.9093 60.8213 84.7679 61.5786L72.5279 63.2373L72.8266 62.1813C73.8879 58.8533 75.2479 56.7413 77.0613 55.5306C78.8746 54.3217 81.8968 53.7173 86.1279 53.7173C91.7279 53.8666 94.1493 55.0773 93.3866 57.4933Z" fill="#38B877"/>
</g>
<defs>
<clipPath id="clip0_21_302">
<rect width="128" height="128" fill="white"/>
</clipPath>
</defs>
</svg>
