<svg width="193" height="40" viewBox="0 0 193 40" fill="none" xmlns="http://www.w3.org/2000/svg">
<g clip-path="url(#clip0_21_295)">
<path d="M15.2277 28.4653C18.315 33.522 23.9773 36.9148 30.279 36.9148C39.5902 36.9148 44.7158 28.8876 44.7158 28.8876L45.3756 31.0258C41.0648 36.6265 33.3639 40.0004 24.7481 40.0004C14.8284 40.0004 6.27345 35.2732 2.33705 28.4561C0.854937 25.8884 0.0275879 23.0204 0.0275879 19.9998C0.0275879 8.95391 11.0941 0 24.7477 0C34.3948 0 42.1619 4.12787 46.2392 10.1099L30.0524 19.7929L39.2902 5.62267C36.6473 3.96221 33.4048 2.40733 30.0524 2.40733C20.5754 2.40733 12.7698 10.3076 12.7698 19.7745C12.7698 22.9464 13.6716 25.9268 15.2277 28.4653ZM58.5694 28.4596C58.5209 28.7826 58.4966 29.1088 58.4968 29.4354C58.4968 33.029 61.4134 35.9429 65.011 35.9429C68.6086 35.9429 71.5248 33.0294 71.5248 29.4354C71.525 29.1076 71.5006 28.7802 71.4519 28.4561C70.9807 25.3289 68.2766 22.9283 65.0106 22.9283C61.745 22.9283 59.0406 25.3289 58.5694 28.4596ZM82.7405 28.4561L85.978 39.3502H74.6214L72.3885 31.8904C70.8932 36.1889 65.8469 39.3502 59.8522 39.3502C52.6797 39.3502 46.8659 34.8249 46.8659 29.2417C46.8659 28.9804 46.8787 28.7209 46.9036 28.4561C47.4139 23.245 53.016 19.1332 59.8522 19.1332C63.7324 19.1332 67.2151 20.4577 69.5947 22.5575L66.5013 12.2258H53.4672C53.4672 12.2258 55.6358 10.9265 65.2526 7.43102C74.8694 3.93591 77.9169 12.2258 77.9169 12.2258L82.7405 28.4561ZM119.05 28.4561V39.3502H107.365V15.4148C107.365 14.569 107.029 13.7579 106.43 13.1598C105.831 12.5618 105.019 12.2258 104.173 12.2258C103.53 12.2256 102.901 12.4195 102.371 12.7819C101.84 13.1443 101.431 13.6585 101.197 14.257V39.3502H89.7286V12.2258H83.0401C83.0401 12.2258 92.3448 6.59457 95.5713 6.59457C98.6291 6.59457 100.892 8.94146 101.175 11.9311C105.675 9.50633 110.138 6.59457 113.208 6.59457C116.38 6.59457 118.962 9.11992 119.05 12.2684V28.4561ZM137.052 28.4561L138.678 33.8256C138.709 36.127 140.602 37.9681 142.926 37.9681C145.302 37.9681 147.227 36.0449 147.227 33.6721C147.227 33.5039 147.217 33.3386 147.198 33.1758L145.816 28.4561L140.961 11.881C140.722 9.73313 138.9 8.06342 136.686 8.06342C134.494 8.06342 132.405 10.1089 132.138 12.2254L137.052 28.4561ZM155.648 28.4582C153.435 35.1615 147.115 40.0004 139.663 40.0004C132.21 40.0004 125.89 35.1619 123.676 28.4561C123.116 26.7565 122.831 24.9783 122.833 23.1889C122.833 13.904 130.368 6.37772 139.663 6.37772C148.957 6.37772 156.492 13.904 156.492 23.1889C156.492 25.0292 156.196 26.8009 155.648 28.4582ZM174.996 28.4561V39.3502H163.527V12.2258H157.114C157.114 12.2258 166.143 6.59457 169.37 6.59457C172.428 6.59457 174.691 8.94146 174.975 11.9311C179.475 9.50633 183.937 6.59457 187.007 6.59457C190.18 6.59457 192.762 9.11992 192.849 12.2684V39.3502H181.164V15.4148C181.164 14.569 180.827 13.7579 180.229 13.1598C179.63 12.5618 178.818 12.2258 177.971 12.2258C177.328 12.2256 176.7 12.4195 176.169 12.7819C175.639 13.1443 175.23 13.6585 174.996 14.257V28.4561Z" fill="#38B877"/>
</g>
<defs>
<clipPath id="clip0_21_295">
<rect width="192.877" height="40" fill="white"/>
</clipPath>
</defs>
</svg>
