<svg width="200" height="43" viewBox="0 0 200 43" fill="none" xmlns="http://www.w3.org/2000/svg">
<g clip-path="url(#clip0_21_275)">
<path d="M200 19.316V15.7984H195.632V10.3305L195.485 10.3754L191.382 11.6309L191.302 11.6555V15.7984H184.827V13.4906C184.827 12.416 185.067 11.5934 185.541 11.0453C186.011 10.5031 186.684 10.2277 187.541 10.2277C188.159 10.2277 188.797 10.373 189.44 10.6594L189.601 10.7312V7.02734L189.525 7C188.925 6.78398 188.11 6.67578 187.099 6.67578C185.825 6.67578 184.668 6.95273 183.658 7.50234C182.663 8.03744 181.843 8.84789 181.297 9.83672C180.742 10.8344 180.461 11.9863 180.461 13.2613V15.7988H177.419V19.3164H180.461V34.134H184.827V19.316H191.302V28.7324C191.302 32.6105 193.131 34.5762 196.739 34.5762C197.362 34.5725 197.984 34.5034 198.593 34.3699C199.241 34.2305 199.682 34.091 199.943 33.9422L200 33.9082V30.3582L199.823 30.4758C199.586 30.634 199.291 30.7629 198.945 30.8586C198.597 30.9563 198.307 31.0055 198.082 31.0055C197.237 31.0055 196.612 30.7777 196.223 30.3281C195.831 29.875 195.632 29.0816 195.632 27.9723V19.316H200ZM167.669 31.0059C166.084 31.0059 164.835 30.4801 163.954 29.4453C163.068 28.4047 162.619 26.9219 162.619 25.0371C162.619 23.093 163.068 21.5715 163.955 20.5125C164.836 19.4609 166.073 18.927 167.633 18.927C169.147 18.927 170.352 19.4367 171.215 20.4434C172.083 21.4547 172.523 22.9641 172.523 24.9309C172.523 26.9219 172.109 28.4516 171.293 29.4746C170.482 30.4902 169.263 31.0059 167.669 31.0059ZM167.863 15.3566C164.84 15.3566 162.438 16.2426 160.727 17.9898C159.015 19.7375 158.148 22.1555 158.148 25.1781C158.148 28.0488 158.995 30.3578 160.665 32.0402C162.335 33.723 164.609 34.5754 167.421 34.5754C170.352 34.5754 172.705 33.6773 174.417 31.9059C176.128 30.1363 176.995 27.741 176.995 24.7887C176.995 21.8734 176.181 19.5473 174.576 17.8762C172.97 16.2043 170.711 15.3566 167.863 15.3566ZM151.108 15.3566C149.051 15.3566 147.35 15.8828 146.05 16.9199C144.743 17.9633 144.08 19.332 144.08 20.9879C144.08 21.8484 144.223 22.6129 144.505 23.2613C144.788 23.9121 145.227 24.4848 145.81 24.9656C146.388 25.4426 147.281 25.9422 148.464 26.45C149.458 26.8594 150.2 27.2059 150.671 27.4785C151.131 27.7461 151.458 28.0148 151.643 28.2766C151.822 28.5324 151.913 28.8832 151.913 29.3156C151.913 30.5477 150.991 31.1469 149.093 31.1469C148.388 31.1469 147.585 31 146.706 30.7102C145.832 30.4246 145.008 30.0066 144.261 29.4707L144.08 29.341V33.5441L144.147 33.5754C144.765 33.8605 145.543 34.1008 146.461 34.2902C147.378 34.4793 148.21 34.5758 148.933 34.5758C151.165 34.5758 152.962 34.0473 154.273 33.0039C155.593 31.9531 156.262 30.5527 156.262 28.8391C156.262 27.6035 155.902 26.5434 155.192 25.6887C154.488 24.841 153.264 24.0625 151.558 23.3746C150.198 22.8289 149.327 22.3762 148.968 22.0285C148.622 21.6926 148.446 21.2176 148.446 20.6164C148.446 20.0828 148.663 19.6559 149.109 19.3098C149.558 18.9621 150.183 18.7852 150.967 18.7852C151.695 18.7852 152.439 18.9 153.179 19.125C153.919 19.3504 154.568 19.6523 155.111 20.0211L155.289 20.143V16.1555L155.22 16.1262C154.72 15.9113 154.06 15.7277 153.259 15.5793C152.461 15.4316 151.737 15.3566 151.108 15.3566ZM132.698 31.0059C131.113 31.0059 129.864 30.4801 128.983 29.4453C128.097 28.4047 127.649 26.9219 127.649 25.0371C127.649 23.093 128.098 21.5715 128.984 20.5125C129.865 19.4609 131.102 18.927 132.663 18.927C134.176 18.927 135.381 19.4367 136.245 20.4434C137.112 21.4547 137.552 22.9641 137.552 24.9309C137.552 26.9219 137.138 28.4516 136.322 29.4746C135.511 30.4902 134.292 31.0059 132.698 31.0059ZM132.893 15.3566C129.868 15.3566 127.467 16.2426 125.756 17.9898C124.045 19.7375 123.177 22.1555 123.177 25.1781C123.177 28.05 124.024 30.3578 125.694 32.0402C127.365 33.723 129.638 34.5754 132.45 34.5754C135.38 34.5754 137.735 33.6773 139.447 31.9059C141.157 30.1363 142.025 27.741 142.025 24.7887C142.025 21.8734 141.211 19.5473 139.605 17.8762C137.998 16.2043 135.74 15.3566 132.893 15.3566ZM116.549 18.9738V15.7984H112.236V34.1332H116.548V24.7539C116.548 23.159 116.91 21.8488 117.624 20.8594C118.328 19.8816 119.267 19.3859 120.413 19.3859C120.802 19.3859 121.238 19.45 121.71 19.577C122.177 19.7027 122.516 19.8395 122.716 19.9832L122.897 20.1148V15.7672L122.827 15.7371C122.425 15.5664 121.857 15.4805 121.138 15.4805C120.054 15.4805 119.084 15.8285 118.254 16.5141C117.525 17.1168 116.997 17.9434 116.595 18.9738H116.549ZM104.513 15.3566C102.534 15.3566 100.769 15.7812 99.2676 16.6176C97.7637 17.4555 96.6001 18.6527 95.8086 20.1742C95.0208 21.6926 94.6208 23.466 94.6208 25.4438C94.6208 27.1758 95.0086 28.7656 95.7751 30.1664C96.5422 31.5699 97.6282 32.668 99.0024 33.4297C100.375 34.1902 101.961 34.5758 103.717 34.5758C105.767 34.5758 107.517 34.166 108.92 33.3582L108.977 33.3254V29.3742L108.796 29.5066C108.15 29.9745 107.439 30.3446 106.686 30.6051C105.923 30.8711 105.229 31.0055 104.619 31.0055C102.927 31.0055 101.568 30.4762 100.582 29.4324C99.5938 28.3867 99.0926 26.9191 99.0926 25.0719C99.0926 23.2133 99.6153 21.7078 100.645 20.5965C101.672 19.4891 103.033 18.9273 104.69 18.9273C106.108 18.9273 107.489 19.4074 108.796 20.3555L108.977 20.4867V16.3234L108.918 16.2906C108.426 16.0152 107.756 15.7879 106.923 15.6156C106.094 15.4438 105.283 15.3566 104.513 15.3566ZM91.6504 15.7984H87.3372V34.1332H91.6504V15.7984ZM89.5379 7.98789C88.8282 7.98789 88.209 8.22969 87.7004 8.7082C87.1895 9.18867 86.9301 9.79336 86.9301 10.5066C86.9301 11.209 87.1864 11.8023 87.6918 12.2699C88.1946 12.7359 88.8157 12.9723 89.5379 12.9723C90.2598 12.9723 90.8833 12.7359 91.3918 12.2707C91.9036 11.8023 92.1633 11.209 92.1633 10.5066C92.1633 9.81836 91.9106 9.21953 91.4129 8.72773C90.9157 8.23672 90.2844 7.98789 89.5379 7.98789ZM78.777 14.4461V34.1328H83.1786V8.54922H77.0868L69.3434 27.552L61.8293 8.54922H55.4895V34.1332H59.6258V14.4441H59.768L67.7028 34.1332H70.8239L78.6348 14.4457L78.777 14.4461Z" fill="#38B877"/>
<path d="M20.2887 20.2887H0V0H20.2887V20.2887Z" fill="#38B877"/>
<path d="M42.6903 20.2887H22.4016V0H42.6903V20.2887Z" fill="#38B877"/>
<path d="M20.2883 42.6981H0V22.4094H20.2883V42.6981Z" fill="#38B877"/>
<path d="M42.6903 42.6981H22.4016V22.4094H42.6903V42.6981Z" fill="#38B877"/>
</g>
<defs>
<clipPath id="clip0_21_275">
<rect width="200" height="42.9688" fill="white"/>
</clipPath>
</defs>
</svg>
