<svg width="128" height="128" viewBox="0 0 128 128" fill="none" xmlns="http://www.w3.org/2000/svg">
<path d="M127.488 57.5359V50.7839H102.656C97.472 50.7839 95.136 53.9839 94.752 57.0879V57.1839V50.7839H87.456V57.5359H94.72H127.488ZM94.72 59.9679L87.424 59.5519V67.3279C87.424 69.7599 86.208 70.4959 81.984 70.4959H76.16C72.672 70.4959 71.2 69.5039 71.2 67.3279V58.8159L63.808 58.2719V67.9359H63.648C63.232 65.1199 62.176 61.8559 55.136 61.3759L32 59.8399C32 63.3919 34.528 65.5039 38.496 65.9199L54.624 67.5519C55.904 67.6479 56.832 68.0319 56.832 69.0879C56.832 70.2399 55.872 70.3679 54.4 70.3679H31.712V59.8399L24.32 59.3599V77.2159H54.432C61.152 77.2159 63.296 73.7279 63.616 70.8159H63.776C64.608 75.4239 68.64 77.2159 75.456 77.2159H82.976C90.944 77.2159 94.72 74.7839 94.72 69.0879V59.9679ZM118.176 61.3439L95.04 59.9679C95.04 63.5199 97.376 65.8879 101.344 66.2079L117.824 67.4879C119.104 67.5839 119.872 67.9039 119.872 68.9599C119.872 69.9519 118.976 70.3359 117.12 70.3359H94.656V77.2159H117.6C124.832 77.2159 128 74.6879 128 68.9279C128 63.7439 125.152 61.7919 118.176 61.3439ZM63.808 50.7839H71.2V57.5359H63.808V50.7839ZM20.256 59.0399L12.224 58.2399L0 77.2159H8.992L20.256 59.0399ZM62.464 50.7839H39.904C34.656 50.7839 32.352 54.0479 31.808 57.1839V50.7839H19.296C17.536 50.7839 16.704 51.3279 15.872 52.5439L12.416 57.5359H62.464V50.7839Z" fill="white"/>
</svg>
