<svg width="160" height="160" viewBox="0 0 160 160" fill="none" xmlns="http://www.w3.org/2000/svg">
<path fill-rule="evenodd" clip-rule="evenodd" d="M142.786 79.3758C142.69 79.8904 142.577 79.6431 142.492 79.3916C140.733 73.5737 135.135 69.3204 128.501 69.3204C121.887 69.3204 116.302 73.5479 114.525 79.3393C114.443 79.6431 114.196 79.5667 114.193 79.3376C114.05 73.1611 109.28 69.0888 103.065 69.1262C99.9197 69.1444 97.3582 70.358 96.4094 71.6844C96.3314 71.7998 96.1421 71.8363 96.1421 71.569V62.6749H89.4094V83.5178C89.4094 86.648 87.4978 91 82.9847 91C78.8535 91 76.8639 88.6327 76.8639 83.976V75.5011H87.4214V69.088H76.863V62.6741H70.1312V79.3559C70.1312 79.7568 69.8822 79.7568 69.7344 79.3733C67.9963 73.5371 62.429 69.2523 55.9022 69.2523C51.5245 69.2523 47.7294 71.0818 45.0541 74.1041C44.9437 74.2028 44.8674 74.1074 44.8865 73.9737V69.088C33.5536 69.088 31.0069 75.477 30.4035 79.4513C30.3512 79.7767 30.0258 79.7576 29.9553 79.4314C28.276 73.5546 22.8557 69.2523 16.4285 69.2523C13.7391 69.2523 11.2257 70.3862 9.08578 72.3734C9.08578 72.3734 9.08412 62.6749 9.08578 62.6749H2.35229L2.36392 83.2887C2.38135 91.0407 8.66078 97.3251 16.4285 97.3251C22.9379 97.3251 28.4147 92.9108 30.0175 86.9178C30.0831 86.7435 30.1985 86.7626 30.1985 86.9153V96.5731H36.9303V83.3651C36.9303 76.7586 40.7876 75.6936 43.7011 75.5301C43.8912 75.521 43.897 75.6073 43.8273 75.7069C42.3439 77.9571 41.5542 80.5935 41.5562 83.2887C41.5562 91.0407 47.9793 97.3251 55.9022 97.3251C62.4166 97.3251 67.9548 93.0769 69.7046 87.2573C69.8058 86.7435 70.1163 86.7443 70.1619 87.2589C70.5114 91.6085 73.8524 97.184 82.3705 97.184C85.2193 97.184 87.873 95.6061 88.8865 94.4456C89.1413 94.2066 89.4086 94.2066 89.4086 94.6648V96.5731H96.1413V81.5713C96.294 78.7466 97.7483 75.1582 101.688 75.1582C106.621 75.1582 107.463 78.403 107.463 79.6248V96.5731H114.195V87.2789C114.195 87.0116 114.482 87.0498 114.513 87.2041C116.279 93.0129 121.873 97.2579 128.501 97.2579C135.111 97.2579 140.512 93.3856 141.68 87.3046L135.404 87.2996C134.113 90.1135 131.507 92.036 128.501 92.036C124.92 92.036 121.906 89.2884 121.007 85.5781L128.041 85.5797H142.501V96.5731H149.232V83.3651C149.232 75.8074 154.74 75.5019 157.648 75.5019V69.0888C146.386 69.088 143.538 75.3965 142.786 79.3758ZM16.045 91.1968C11.6839 91.1968 8.14697 87.6682 8.14697 83.3153C8.14697 78.9624 11.683 75.433 16.045 75.433C20.407 75.433 23.9431 78.9616 23.9431 83.3153C23.9431 87.669 20.4062 91.1968 16.045 91.1968ZM55.757 91.1968C51.3958 91.1968 47.8597 87.6682 47.8597 83.3153C47.8597 78.9624 51.3958 75.433 55.757 75.433C60.1181 75.433 63.655 78.9616 63.655 83.3153C63.655 87.669 60.1181 91.1968 55.757 91.1968ZM128.334 80.0498L121.569 80.049C122.707 76.8101 125.513 74.5191 128.793 74.5191C132.074 74.5191 134.88 76.8101 136.018 80.0498H128.334ZM153.51 94.4647C153.392 94.3431 153.249 94.2471 153.092 94.1826C152.934 94.1181 152.766 94.0864 152.596 94.0895C152.24 94.0895 151.937 94.214 151.688 94.4647C151.566 94.5822 151.469 94.7235 151.404 94.8799C151.339 95.0362 151.307 95.2043 151.31 95.3736C151.31 95.7322 151.434 96.0369 151.684 96.2884C151.934 96.5415 152.239 96.6669 152.596 96.6669C152.954 96.6669 153.259 96.5415 153.51 96.2884C153.632 96.1698 153.729 96.0275 153.794 95.8701C153.859 95.7128 153.891 95.5438 153.888 95.3736C153.888 95.0184 153.763 94.7146 153.51 94.4647ZM153.382 96.163C153.166 96.3805 152.904 96.4901 152.596 96.4901C152.288 96.4901 152.026 96.3805 151.811 96.163C151.596 95.9456 151.488 95.6824 151.488 95.3736C151.488 95.0674 151.597 94.8059 151.813 94.5901C151.914 94.4847 152.036 94.4013 152.17 94.345C152.305 94.2888 152.45 94.2608 152.596 94.263C152.904 94.263 153.165 94.3718 153.382 94.5901C153.598 94.8067 153.706 95.0674 153.706 95.3736C153.706 95.6824 153.598 95.9456 153.382 96.163Z" fill="white"/>
<path fill-rule="evenodd" clip-rule="evenodd" d="M153.171 96.0594C153.163 96.0359 153.158 96.0112 153.158 95.9863C153.156 95.9481 153.154 95.9133 153.154 95.8809V95.7771C153.152 95.6981 153.125 95.6217 153.078 95.558C153.049 95.519 153.013 95.4864 152.97 95.4624C152.928 95.4384 152.882 95.4235 152.833 95.4185C152.906 95.4096 152.976 95.3865 153.039 95.3505C153.131 95.2907 153.177 95.1977 153.177 95.0716C153.177 94.8939 153.104 94.7744 152.958 94.713C152.875 94.679 152.747 94.6624 152.57 94.6624H152.074V96.076H152.324V95.5181H152.521C152.652 95.5181 152.746 95.5339 152.798 95.5638C152.887 95.6161 152.933 95.724 152.933 95.8884V96.0012L152.938 96.0469C152.938 96.0527 152.939 96.0585 152.941 96.0635L152.944 96.0776H153.178L153.171 96.0594ZM152.788 95.3131C152.712 95.3382 152.631 95.3492 152.55 95.3455H152.325V94.8325H152.539C152.677 94.8325 152.778 94.8499 152.841 94.8848C152.902 94.9205 152.935 94.9894 152.935 95.0923C152.935 95.2011 152.886 95.2749 152.788 95.3131Z" fill="white"/>
</svg>
