<svg width="100" height="100" viewBox="0 0 100 100" fill="none" xmlns="http://www.w3.org/2000/svg">
<g clip-path="url(#clip0_21_293)">
<path d="M74.8458 60.8333V38.85H79.9375V56.3667H88.8542V60.825H74.8458V60.8333ZM34.0792 47.1333L46.4958 37.5833L50 40.4458L38.2208 49.3625L40.7667 51.5917L52.5458 42.3583L56.05 45.225C52.1423 48.3266 48.2159 51.4044 44.2708 54.4583L46.8125 56.6917L58.6042 47.1292L58.6 38.8542H63.6958V56.3708H72.9292V60.8292H58.9208V52.55L46.5 62.1L34.0792 52.55C33.4792 55.5875 31.3583 58.2167 28.6125 59.6083C27.4202 60.2153 26.1291 60.6048 24.8 60.7583C24.0375 60.85 23.2708 60.8292 22.5042 60.8292H14.65V38.8542H23.7083C26.0778 38.8769 28.371 39.6941 30.2208 41.175C32.1125 42.675 33.4625 44.8083 34.0833 47.1333M19.4333 43.3125V56.6875L23.4042 56.6833C24.2388 56.6553 25.0572 56.4459 25.8027 56.0696C26.5482 55.6932 27.2027 55.1591 27.7208 54.5042C28.5956 53.4064 29.1329 52.0784 29.2675 50.6812C29.4021 49.2841 29.1282 47.8779 28.4792 46.6333C28.0682 45.842 27.4927 45.1478 26.7913 44.5973C26.0899 44.0468 25.2788 43.6528 24.4125 43.4417C23.7208 43.275 23.0042 43.3167 22.3 43.3083L19.4333 43.3125ZM49.25 0H50.6542C58.5074 0.102549 66.2249 2.06296 73.175 5.72083C79.9576 9.29013 85.8372 14.3589 90.3667 20.5417C96.4853 28.8763 99.8527 38.9116 100 49.25V50.75C99.8446 63.1996 95.0345 75.14 86.5167 84.2208C81.9258 89.1231 76.3922 93.0476 70.2476 95.7591C64.103 98.4705 57.474 99.913 50.7583 100H49.2542C43.344 99.9102 37.4965 98.7732 31.9833 96.6417C25.2649 94.0323 19.1901 90.0014 14.175 84.825C8.80469 79.3025 4.77592 72.6192 2.4 65.2917C0.886473 60.5909 0.0776939 55.6919 0 50.7542L0 49.25C0.15759 39.7551 3.03842 30.5052 8.3 22.6C13.2092 15.1893 19.9759 9.19552 27.925 5.21667C34.5542 1.90619 41.8412 0.123612 49.25 0ZM48.6125 5.125C38.8396 5.40257 29.4277 8.87898 21.8208 15.0208C15.6018 20.0324 10.8288 26.6089 7.99167 34.075C3.8735 45.0323 4.16174 57.1591 8.79583 67.9083C11.9932 75.2544 17.0938 81.6136 23.5708 86.3292C29.4559 90.6203 36.3027 93.4042 43.5125 94.4375C49.5792 95.3083 55.825 94.9542 61.7458 93.3542C69.8499 91.1649 77.1765 86.7444 82.8917 80.5958C88.6109 74.4567 92.489 66.8333 94.0833 58.5958C95.3295 52.133 95.156 45.4766 93.575 39.0875C91.7356 31.7218 88.0576 24.9432 82.8852 19.386C77.7128 13.8288 71.215 9.67473 64 7.3125C59.0365 5.69639 53.8297 4.95618 48.6125 5.125Z" fill="white"/>
</g>
<defs>
<clipPath id="clip0_21_293">
<rect width="100" height="100" fill="white"/>
</clipPath>
</defs>
</svg>
