<svg width="128" height="128" viewBox="0 0 128 128" fill="none" xmlns="http://www.w3.org/2000/svg">
<path d="M88.6187 74.2133C83.1307 74.2133 81.0027 69.136 81.0027 64C81.0027 58.8 83.1253 53.7227 88.6187 53.7227C94.112 53.7227 96.24 58.8 96.24 64C96.24 69.136 94.112 74.2133 88.6187 74.2133ZM88.6187 48.5867C79.9413 48.5867 74.928 55.0827 74.928 64C74.928 72.9173 79.9413 79.4133 88.6187 79.4133C97.296 79.4133 102.315 72.9173 102.315 64C102.315 55.0827 97.3013 48.5867 88.6187 48.5867ZM0 49.4187H21.7867V54.6133H6.08533V61.0507H20.7253V66.128H6.08533V73.3333H21.7867V78.5333H0V49.4187ZM35.8933 64.5867H30.4053V54.608H35.8933C39.6747 54.608 42.2133 56.2667 42.2133 59.6267C42.2133 62.9387 39.6747 64.5867 35.8933 64.5867ZM24.3307 78.528H30.4107V69.7867H35.8933C43.2747 69.7867 48.2347 66.1227 48.2347 59.632C48.2347 53.0773 43.2693 49.4187 35.8933 49.4187H24.3307V78.528ZM110.763 49.4187H104.565V78.528H110.528V66.7147C110.528 63.5253 110.411 60.6347 110.293 58.1547C111.003 59.5787 113.125 63.9413 114.069 65.6L121.803 78.5333H128V49.4187H122.101V60.928C122.101 64.1227 122.219 67.3067 122.336 69.8453C121.627 68.3733 119.504 64 118.496 62.3467L110.763 49.4187ZM55.1467 68.9013C55.1467 72.7947 58.3893 74.336 61.8187 74.336C64.064 74.336 67.7813 73.6853 67.7813 70.672C67.7813 67.4827 63.2907 66.8907 58.9867 65.7707C54.4373 64.5333 50.0693 62.8747 50.0693 57.4453C50.0693 51.4187 55.7387 48.5867 61.0507 48.5867C67.1947 48.5867 72.8053 51.2427 72.8053 58.032H66.7787C66.544 54.4907 63.824 53.6053 60.7573 53.6053C58.688 53.6053 56.0907 54.4267 56.0907 56.9067C56.0907 59.152 57.568 59.504 64.9493 61.3973C67.072 61.984 73.8027 63.2853 73.8027 69.904C73.8027 75.3333 69.552 79.3493 61.5787 79.3493C55.088 79.3493 49.008 76.16 49.0613 68.9013H55.1467Z" fill="white"/>
</svg>
