<svg width="165" height="80" viewBox="0 0 165 80" fill="none" xmlns="http://www.w3.org/2000/svg">
<g clip-path="url(#clip0_21_289)">
<path d="M46.3885 55.9748C46.3987 56.8926 46.2254 57.8031 45.8789 58.6531C45.5323 59.503 45.0195 60.2751 44.3705 60.9241C43.7215 61.5731 42.9494 62.086 42.0994 62.4325C41.2495 62.779 40.3389 62.9523 39.4212 62.9421C38.5013 62.96 37.5872 62.7921 36.7338 62.4483C35.8803 62.1045 35.1051 61.592 34.4545 60.9414C33.8039 60.2908 33.2914 59.5156 32.9476 58.6622C32.6038 57.8087 32.4359 56.8947 32.4538 55.9748V31.9495C32.3337 29.571 33.527 28.2937 33.8953 27.8693H24.5255C25.018 28.2937 26.2073 29.6551 26.2073 31.9536V54.5413C26.2193 61.869 32.1215 67.0864 39.4212 67.0344C46.6768 67.0864 52.575 61.869 52.635 54.5413V31.9495C52.587 29.567 53.7762 28.2937 54.3168 27.8653H44.947C45.2673 28.2897 46.4565 29.6511 46.3885 31.9495V55.9748ZM9.38961 66.5499C9.02123 66.0734 7.82797 64.796 7.9481 62.4616V47.0854H16.1167C17.6143 47.0975 18.8916 47.7782 19.7205 48.527L19.4802 43.2454H7.9481V31.7133H18.9997C20.5053 31.6132 21.7826 32.2939 22.6035 33.1548L22.3632 27.8693H0.0197754C0.512293 28.2937 1.70154 29.6551 1.70154 31.9536V62.4656C1.70154 64.8 0.512293 66.0734 0.0197754 66.5539L9.38961 66.5499ZM55.0375 80C55.478 79.6877 60.243 74.326 60.3231 70.6302V31.9495C60.2887 30.4266 59.6893 28.9708 58.6413 27.8653H68.0112C67.5627 28.2897 66.3694 29.567 66.3294 31.9495V65.3446C66.3694 73.4771 62.6255 79.7718 55.0375 80ZM79.7835 62.4656C79.8156 64.8 81.0048 66.0734 81.4653 66.5539H72.0955C72.4959 66.0774 73.6851 64.716 73.7772 62.2293V31.9495C73.7329 30.4299 73.1348 28.9788 72.0955 27.8693H81.4653C81.0048 28.2937 79.8156 29.571 79.7835 31.9536V62.4656ZM92.2767 27.8693H101.646H92.2767ZM69.6929 4.08429C71.9873 1.06912 74.6461 0.112118 77.6213 0C83.3353 0.112118 87.9161 4.69293 87.9521 10.3308C87.9161 15.9888 83.3353 20.5696 77.6213 20.6617C75.4864 20.5524 73.4167 19.89 71.615 18.7397C69.6008 17.4663 67.7309 14.8516 66.8099 13.6944C66.3178 13.0871 65.6949 12.5988 64.9877 12.266C64.2805 11.9332 63.5072 11.7645 62.7256 11.7724C61.2601 11.7724 59.8546 12.3545 58.8183 13.3908C57.782 14.4271 57.1998 15.8326 57.1998 17.2982C57.2359 20.2573 59.6864 22.7078 62.7256 22.824C65.3364 22.7078 68.2394 20.2933 68.9722 18.9799V22.824C68.1781 23.6825 67.2104 24.3622 66.1334 24.8178C65.0564 25.2735 63.8947 25.4947 62.7256 25.4667C58.1568 25.4747 54.469 21.7869 54.557 17.2982C54.469 12.6813 58.1568 8.98944 62.7256 8.88933C65.1402 8.98944 67.3184 10.0385 68.7319 11.7724C70.1134 13.4902 71.8352 15.7565 73.537 16.5774C74.7142 17.3342 76.1437 17.8027 77.6213 17.7787C78.6035 17.7949 79.5789 17.6135 80.4896 17.2452C81.4003 16.8769 82.2276 16.3293 82.9224 15.6348C83.6172 14.9404 84.1653 14.1134 84.5341 13.2029C84.9028 12.2924 85.0848 11.3171 85.0691 10.3349C85.1492 6.22654 81.8057 2.88703 77.6213 2.88703C74.0815 2.88703 71.3066 4.90115 69.2124 9.13759L69.6929 4.08429ZM156.905 55.9748C156.88 59.8348 153.729 62.9861 149.937 62.9421C148.058 62.971 146.245 62.2539 144.894 60.9479C143.543 59.6419 142.764 57.8535 142.73 55.9748V31.9495C142.778 29.567 143.971 28.2937 144.411 27.8653H135.042C135.458 28.2897 136.651 29.6511 136.723 31.9495V54.5373C136.663 61.865 142.561 67.0824 149.937 67.0304C157.117 67.0824 163.019 61.865 162.911 54.5373V31.9495C163.031 29.567 164.22 28.2937 164.593 27.8653H155.223C155.711 28.2897 156.901 29.6511 156.905 31.9495V55.9748ZM83.3873 33.3951C85.2573 31.2728 87.1312 31.6132 88.6729 31.7133H93.9584V62.2253C93.9384 64.7119 92.7492 66.0734 92.2767 66.5499H101.646C101.258 66.0734 100.065 64.796 99.9647 62.4616V31.7133H105.01C106.616 31.6132 107.977 31.445 108.854 33.3951L110.536 27.8693H85.0691L83.3873 33.3951ZM130.237 33.3951V27.8693C127.121 27.0164 113.167 24.722 110.536 35.5573C109.851 39.4414 111.549 44.4627 116.542 47.0894C119.806 48.6311 124.058 51.0136 125.431 51.8945C127.634 53.2239 128.034 55.282 127.353 57.9008C126.697 60.7998 119.633 67.0944 110.536 59.1021L112.458 65.8291C118.104 68.0354 127.209 67.1825 131.438 62.4656C135.546 57.8207 134.865 50.9295 130.477 48.0505C127.65 46.1204 120.486 42.1643 119.185 41.5636C118.1 40.975 114.104 36.3782 118.464 32.1938C122.761 28.0695 128.907 30.508 130.237 33.3951Z" fill="white"/>
</g>
<defs>
<clipPath id="clip0_21_289">
<rect width="164.609" height="80" fill="white"/>
</clipPath>
</defs>
</svg>
