<svg width="100" height="100" viewBox="0 0 100 100" fill="none" xmlns="http://www.w3.org/2000/svg">
<g clip-path="url(#clip0_21_287)">
<path fill-rule="evenodd" clip-rule="evenodd" d="M65.8042 63.8875C66.2049 63.8693 66.5919 63.7357 66.9186 63.5029C67.2453 63.2701 67.4978 62.9479 67.6458 62.575L76.7958 36.0333C77.0458 35.3125 76.6292 34.7208 75.8583 34.7208H71.6917C71.2905 34.7393 70.903 34.8729 70.5757 35.1056C70.2484 35.3384 69.995 35.6604 69.8458 36.0333L60.6542 62.575C60.4042 63.3 60.825 63.8875 61.5917 63.8875H65.8042ZM100 50C100 77.6125 77.6125 100 50 100C49.2375 100 48.5 99.9167 47.7417 99.8875L57.825 70.7583C57.9746 70.3857 58.2281 70.0639 58.5554 69.8313C58.8826 69.5986 59.2698 69.4648 59.6708 69.4458H66.6667C77.5292 69.4458 77.6292 65.8417 78.775 62.5292C81.45 54.7708 86.0667 41.3917 86.9583 38.775C88.2417 35.0417 88.6667 29.1667 79.1708 29.1667H62.5C62.0991 29.1861 61.7121 29.3201 61.385 29.5527C61.0578 29.7854 60.8042 30.1069 60.6542 30.4792L37.1875 98.2792C15.7917 92.6125 0 73.175 0 50C0 27.8917 14.3667 9.16667 34.2625 2.5625L11.5667 68.1292C11.3167 68.8542 11.7333 69.4458 12.5 69.4458H20.8333C21.2349 69.4265 21.6224 69.2921 21.9497 69.0587C22.2769 68.8252 22.5302 68.5025 22.6792 68.1292L33.7875 36.0333C33.936 35.6608 34.1886 35.3388 34.5152 35.1061C34.8418 34.8733 35.2285 34.7396 35.6292 34.7208H39.75C40.5125 34.7208 40.9333 35.3125 40.6833 36.0333L29.6167 68.1292C29.3708 68.8542 29.7917 69.4458 30.5542 69.4458H38.8875C39.2886 69.4267 39.6757 69.2924 40.0023 69.0588C40.329 68.8253 40.5813 68.5025 40.7292 68.1292L50.8417 38.8125C53.1875 32.0083 51.3 29.1667 43.1083 29.1667H37.5542C36.7917 29.1667 36.3708 28.575 36.6208 27.8542L46.1917 0.191667C47.4583 0.0958333 48.7125 0 50 0C77.6125 0 100 22.3875 100 50Z" fill="white"/>
</g>
<defs>
<clipPath id="clip0_21_287">
<rect width="100" height="100" fill="white"/>
</clipPath>
</defs>
</svg>
