<svg width="128" height="52" viewBox="0 0 128 52" fill="none" xmlns="http://www.w3.org/2000/svg">
<g clip-path="url(#clip0_21_285)">
<path d="M24.889 47.515V51.0708H0V47.515H24.889ZM63.7845 47.515C61.2878 49.8103 58.0176 51.0799 54.6263 51.0705L28.4445 51.0355V47.515H63.7845ZM100.791 47.515L99.55 51.0705L98.3195 47.515H100.791ZM88.889 47.515V51.0708H71.1113V47.515H88.889ZM128 47.515V51.0708H110.222V47.515H128ZM67.8118 40.7275C67.5066 41.9747 67.0249 43.172 66.3812 44.283H28.4445V40.7275H67.8118ZM103.174 40.7275L101.926 44.2833H97.1848L95.9368 40.7275H103.174ZM88.889 40.7275V44.283H71.1113V40.7275H88.889ZM128 40.7275V44.283H110.222V40.7275H128ZM24.889 40.7275V44.283H0V40.7275H24.889ZM17.7775 33.9393V37.495H7.111V33.9393H17.7775ZM46.222 33.9393V37.495H35.5552V33.9393H46.222ZM67.7262 33.9393C68.0413 35.0983 68.2012 36.2939 68.2018 37.495H56.2425V33.9393H67.7262ZM105.557 33.9393L104.309 37.495H94.8018L93.5533 33.9393H105.557ZM88.8887 33.9393V37.495H78.222V33.9393H88.8887ZM120.889 33.9393V37.495H110.222V33.9393H120.889ZM17.7775 27.1515V30.707H7.111V27.1515H17.7775ZM88.8887 27.1515V30.707H78.222V27.1515H88.8887ZM120.889 27.1515V30.707H110.222V27.1515H120.889ZM63.4113 27.1515C64.5953 28.1588 65.5984 29.3612 66.377 30.7068H35.5555V27.1513L63.4113 27.1515ZM107.94 27.1515L106.692 30.707H92.4185L91.1705 27.1513L107.94 27.1515ZM98.5557 20.3638L99.5553 23.2378L100.554 20.3638H120.888V23.9193H110.223V20.6525L109.075 23.9195H90.036L88.8887 20.652V23.9195H78.2225V20.3638H98.5557ZM35.5552 20.3638H66.3775C65.5988 21.7094 64.5957 22.9119 63.4115 23.9193H35.5555L35.5552 20.3638ZM17.7775 20.3638V23.9193H7.111V20.3635L17.7775 20.3638ZM17.7775 13.5758V17.1313H7.111V13.5758H17.7775ZM46.222 13.5758V17.1313H35.5552V13.5758H46.222ZM68.202 13.5758C68.2013 14.7768 68.0414 15.9723 67.7262 17.1313H56.2425V13.5758H68.202ZM96.1953 13.5758L97.4317 17.1313H78.2225V13.5758H96.1953ZM120.888 13.5758V17.1313H101.679L102.915 13.5758H120.888ZM24.8885 6.78776V10.3435H0V6.78751L24.8885 6.78776ZM66.381 6.78776C67.0247 7.89879 67.5064 9.09604 67.8115 10.3433H28.444V6.78776H66.381ZM128 6.78776V10.3433H104.039L105.276 6.78776H128ZM93.8347 6.78776L95.0713 10.3433H71.111V6.78776H93.8347ZM24.8892 0.000262408V3.55551H0V1.24082e-05L24.8892 0.000262408ZM54.6263 1.24082e-05C58.0167 -0.00457751 61.2853 1.26437 63.7845 3.55551H28.4445V1.24082e-05H54.6263ZM128 1.24082e-05V3.55576H106.4L107.636 0.000262408L128 1.24082e-05ZM91.475 1.24082e-05L92.7113 3.55576H71.1113V0.000262408L91.475 1.24082e-05Z" fill="white"/>
</g>
<defs>
<clipPath id="clip0_21_285">
<rect width="128" height="51.25" fill="white"/>
</clipPath>
</defs>
</svg>
