<svg width="128" height="128" viewBox="0 0 128 128" fill="none" xmlns="http://www.w3.org/2000/svg">
<path d="M112.235 65.536C112.235 68.2026 110.405 70.16 107.888 70.16C105.413 70.16 103.477 68.1333 103.477 65.536C103.477 62.816 105.307 60.9066 107.824 60.9066C110.299 60.9066 112.235 62.9386 112.235 65.536ZM35.9413 60.6293C35.2743 60.6077 34.6117 60.7449 34.008 61.0296C33.4044 61.3143 32.877 61.7382 32.4693 62.2666C31.659 63.4075 31.3296 64.8211 31.552 66.2026L39.44 62.928C39.1466 62.2443 38.6583 61.6622 38.0361 61.2543C37.4139 60.8465 36.6853 60.6309 35.9413 60.6346V60.6293ZM73.0773 60.9066C70.56 60.9066 68.7253 62.816 68.7253 65.536C68.7253 68.128 70.6667 70.16 73.1413 70.16C75.6587 70.16 77.488 68.1973 77.488 65.536C77.488 62.9386 75.552 60.9066 73.0773 60.9066ZM128 42.6506V85.3493H0V42.6506H128ZM26.72 69.6H16.4693V52.4H11.8933V73.7493H26.72V69.6ZM32.784 69.0986L44.32 64.3146C44.113 62.6289 43.4283 61.0374 42.3467 59.728C40.832 57.968 38.592 57.0346 35.8613 57.0346C30.896 57.0346 27.152 60.6933 27.152 65.5306C27.152 70.4906 30.9067 74.0266 36.3573 74.0266C39.408 74.0266 42.5333 72.576 43.9947 70.8853L41.1413 68.6933C39.2373 70.1013 38.1547 70.432 36.4213 70.432C34.864 70.432 33.648 69.952 32.784 69.0986ZM62.4907 63.5573C62.4907 59.776 59.7867 57.0346 55.8133 57.0346C54.7787 57.0389 53.7585 57.2783 52.8299 57.7347C51.9014 58.1911 51.0887 58.8527 50.4533 59.6693V57.312H45.9413V73.744H50.4533V64.3946C50.4533 62.7093 51.76 60.9226 54.176 60.9226C56.0427 60.9226 57.9733 62.2186 57.9733 64.3946V73.744H62.4907V63.5573ZM81.9413 65.5306C81.9413 60.7093 78.0747 57.0346 73.1413 57.0346C68.1653 57.0346 64.272 60.768 64.272 65.5306C64.272 70.3466 68.144 74.0213 73.0773 74.0213C78.048 74.0213 81.9413 70.288 81.9413 65.5306ZM92.96 73.744L99.7227 57.312H94.5653L90.4853 68.5066L86.4053 57.3066H81.2533L88.016 73.7386L92.96 73.744ZM116.688 65.5306C116.688 60.7093 112.821 57.0346 107.888 57.0346C102.917 57.0346 99.024 60.768 99.024 65.5306C99.024 70.3466 102.891 74.0213 107.824 74.0213C112.795 74.0213 116.688 70.288 116.688 65.5306Z" fill="white"/>
</svg>
