<svg width="128" height="128" viewBox="0 0 128 128" fill="none" xmlns="http://www.w3.org/2000/svg">
<path d="M75.0827 48.7307H68.0481V78.6987H89.6534V72.864H75.0827V48.7307ZM105.125 61.6907V67.28H110.853V72.5334C109.215 73.0701 107.5 73.3385 105.776 73.328C99.4454 73.328 97.3387 70.16 97.3387 63.728C97.3387 57.6 99.3494 53.984 105.68 53.984C107.046 53.8663 108.42 54.0948 109.675 54.6485C110.93 55.2023 112.025 56.0633 112.859 57.152L117.232 53.1947C115.814 51.4951 114.007 50.1626 111.965 49.3103C109.922 48.458 107.704 48.111 105.499 48.2987C103.436 48.0571 101.346 48.292 99.3885 48.9852C97.4311 49.6784 95.6589 50.8115 94.2081 52.2973C92.7574 53.783 91.6669 55.5818 91.0206 57.5552C90.3743 59.5286 90.1894 61.6239 90.4801 63.68C90.4801 73.7174 95.1521 79.1467 105.451 79.1467C109.604 79.2792 113.714 78.2701 117.333 76.2294V61.6907H105.125ZM34.0747 40.976C31.0095 40.9101 27.9619 41.4568 25.1108 42.5842C22.2596 43.7117 19.6623 45.397 17.4711 47.5416C15.2799 49.6861 13.5391 52.2465 12.3505 55.0727C11.162 57.899 10.5498 60.9341 10.5498 64C10.5498 67.066 11.162 70.1011 12.3505 72.9273C13.5391 75.7536 15.2799 78.314 17.4711 80.4585C19.6623 82.603 22.2596 84.2884 25.1108 85.4158C27.9619 86.5433 31.0095 87.09 34.0747 87.024C37.14 87.09 40.1876 86.5433 43.0387 85.4158C45.8899 84.2884 48.4872 82.603 50.6784 80.4585C52.8695 78.314 54.6104 75.7536 55.7989 72.9273C56.9875 70.1011 57.5997 67.066 57.5997 64C57.5997 60.9341 56.9875 57.899 55.7989 55.0727C54.6104 52.2465 52.8695 49.6861 50.6784 47.5416C48.4872 45.397 45.8899 43.7117 43.0387 42.5842C40.1876 41.4568 37.14 40.9101 34.0747 40.976ZM39.6534 72.2827V74.1014H33.1307V53.8987H35.0134V72.2827H39.6534ZM53.6694 63.136V64C53.6736 66.5432 53.1669 69.0613 52.1792 71.4048C51.1916 73.7484 49.7432 75.8696 47.9201 77.6427C44.2126 81.2534 39.2419 83.2739 34.0667 83.2739C28.8916 83.2739 23.9209 81.2534 20.2134 77.6427C18.3956 75.8665 16.9518 73.7442 15.9671 71.4012C14.9824 69.0581 14.4768 66.5416 14.4801 64C14.5266 58.8445 16.6163 53.918 20.2909 50.3015C23.9654 46.685 28.9245 44.6738 34.0801 44.7094C34.3041 44.7094 34.7681 44.7094 35.0134 44.736V46.5334H34.0801C29.3828 46.5156 24.8686 48.3538 21.5201 51.648C19.8681 53.2549 18.5551 55.1765 17.6585 57.2995C16.7618 59.4224 16.2999 61.7035 16.2999 64.008C16.2999 66.3125 16.7618 68.5937 17.6585 70.7166C18.5551 72.8396 19.8681 74.7612 21.5201 76.368C23.9317 78.7396 26.9679 80.3765 30.2746 81.0878C33.5813 81.7991 37.0221 81.5555 40.1955 80.3853C43.3689 79.2151 46.1442 77.1666 48.1975 74.4788C50.2508 71.7911 51.4975 68.5748 51.7921 65.2054V64.928H39.6747V63.152H53.6694V63.136ZM29.4027 56.6507C29.4112 57.2073 29.2539 57.7538 28.9508 58.2207C28.6478 58.6876 28.2127 59.0538 27.7009 59.2727C27.189 59.4916 26.6237 59.5533 26.0767 59.4499C25.5298 59.3465 25.0259 59.0828 24.6293 58.6922C24.2327 58.3016 23.9613 57.8019 23.8495 57.2565C23.7378 56.7112 23.7908 56.145 24.0018 55.6299C24.2128 55.1148 24.5723 54.6741 25.0345 54.3639C25.4967 54.0538 26.0408 53.8881 26.5974 53.888C26.9634 53.8838 27.3266 53.9521 27.6661 54.0889C28.0056 54.2257 28.3146 54.4284 28.5754 54.6852C28.8362 54.942 29.0435 55.2479 29.1855 55.5852C29.3275 55.9226 29.4014 56.2847 29.4027 56.6507Z" fill="white"/>
</svg>
