<svg width="128" height="128" viewBox="0 0 128 128" fill="none" xmlns="http://www.w3.org/2000/svg">
<path d="M81.1467 57.5681L101.307 70.4534H87.104L66.944 57.5681H81.1467ZM30.1653 45.4294L27.8293 54.1014L26.896 57.5681L23.4187 70.4534L22.4853 73.9201L20.1547 82.5708H30.1227L32.4533 73.9201L33.3867 70.4534L36.8587 57.5681L37.792 54.1014L40.128 45.4294H30.1653ZM62.4853 73.9201L60.1547 82.5708H86.5387L100.101 73.9201H62.4853ZM81.4507 45.4294L67.8613 54.1014H105.653L107.989 45.4294H81.4507ZM118.037 45.4294L115.701 54.1014L114.768 57.5681L111.296 70.4534L110.363 73.9201L108.032 82.5708H118L120.331 73.9201L121.264 70.4534L124.736 57.5681L125.669 54.1014L128 45.4294H118.037ZM10.0107 45.4294L7.67467 54.1014L6.74133 57.5681L3.26933 70.4534L2.336 73.9201L0 82.5708H9.968L12.2987 73.9201L13.232 70.4534L16.704 57.5681L17.6373 54.1014L19.9733 45.4294H10.0107ZM50.2027 45.4294L47.8667 54.1014L46.9333 57.5681L43.4613 70.4534L42.528 73.9201L40.1973 82.5708H50.1653L52.496 73.9201L53.4293 70.4534L56.9013 57.5681L57.8347 54.1014L60.1707 45.4294H50.2027Z" fill="white"/>
</svg>
