<svg width="128" height="128" viewBox="0 0 128 128" fill="none" xmlns="http://www.w3.org/2000/svg">
<path d="M114.645 46.9332C110.262 46.9005 105.884 47.2539 101.563 47.9892C98.3627 48.5759 95.3493 49.1786 92.5333 51.0292C88.2293 53.8346 86.7947 58.9759 86.7413 63.7972C86.6773 69.0239 88.2507 74.7839 93.1947 77.3439C97.1147 79.3919 101.392 80.2879 105.755 80.6719C113.205 81.3012 120.645 81.2052 128 80.1919V74.9652C122.453 75.9786 116.763 76.6186 111.019 75.7759C102.208 74.4959 100.725 67.9199 100.725 63.5839C100.725 61.1786 101.045 58.3199 103.296 55.4452C106.901 50.8319 117.52 50.3466 127.563 52.2986V47.7332C123.274 47.2394 118.962 46.9724 114.645 46.9332ZM46.3147 47.9839V71.6959C46.4747 75.6639 47.888 79.7919 56.096 80.1279C65.7707 80.5279 74.976 80.3679 84.544 79.9999V75.2212C79.7973 75.2959 65.9467 75.2266 65.0773 75.2212C61.3227 74.9972 59.888 73.8559 59.7547 70.7572C59.6882 68.8824 59.6526 67.0066 59.648 65.1306H81.9253V60.6826H59.6533V52.5386H84.0907V47.9839H46.3147ZM0 47.9839V79.9786H6.112V57.2906L24.1547 77.3652C26.3413 79.5199 28.224 79.9146 30.1387 79.9786H40.8853V47.9839H34.752V71.4346L16.672 51.3972C15.4347 50.1866 12.656 47.9839 10.304 47.9839H0Z" fill="white"/>
</svg>
