<svg width="220" height="220" viewBox="0 0 220 220" fill="none" xmlns="http://www.w3.org/2000/svg">
<g clip-path="url(#clip0_21_263)">
<path d="M181.651 94.2425L182.084 118.917H181.871L174.707 94.2425H162.965V125.324H170.734L170.301 99.7906H170.514L178.179 125.324H189.42V94.2425H181.651ZM33.6256 94.2425L27.7544 125.647H36.2381L40.5694 97.075H40.7481L44.9762 125.647H53.3912L47.5887 94.2425H33.6256ZM81.1044 94.2425L77.2337 118.195H77.0206L73.1156 94.2425H60.2937L59.6819 125.647H67.5606L67.7737 97.3981H67.8425L73.1087 125.647H81.0906L86.3569 97.3981H86.57L86.7831 125.647H94.6619L93.9125 94.2425H81.1044ZM14.4994 116.731C14.8225 117.446 14.7125 118.518 14.6094 119.02C14.3962 120.092 13.64 121.131 11.5637 121.131C9.55625 121.131 8.415 119.982 8.415 118.305V115.259H0V117.659C0 124.712 5.54812 126.789 11.4606 126.789C17.1187 126.789 21.8419 124.822 22.5981 119.666C23.0312 116.944 22.7081 115.156 22.5981 114.51C21.1269 107.883 9.13687 106.026 8.31187 102.334C8.20093 101.778 8.20093 101.206 8.31187 100.65C8.525 99.6119 9.24 98.5394 11.1375 98.5394C13.035 98.5394 14.0731 99.6875 14.0731 101.365V103.263H21.9519V101.076C21.9519 94.2356 15.7575 93.1975 11.3506 93.1975C5.76125 93.1975 1.14812 95.0606 0.323125 100.107C0.0387806 101.506 0.0763956 102.952 0.433125 104.335C1.68437 110.818 12.9319 112.716 14.5062 116.724L14.4994 116.731ZM116.731 116.731C117.054 117.446 116.944 118.415 116.841 119.02C116.627 120.092 115.871 121.131 113.795 121.131C111.787 121.131 110.646 119.982 110.646 118.305V115.259H102.231V117.659C102.231 124.602 107.676 126.72 113.582 126.72C119.24 126.72 123.86 124.822 124.609 119.556C125.042 116.834 124.719 115.149 124.609 114.4C123.358 107.882 111.471 105.916 110.646 102.334C110.535 101.778 110.535 101.206 110.646 100.65C110.825 99.6119 111.574 98.5394 113.472 98.5394C115.259 98.5394 116.407 99.6875 116.407 101.365V103.263H124.176V101.076C124.176 94.2356 118.092 93.1975 113.685 93.1975C108.096 93.1975 103.586 94.9506 102.761 100.107C102.547 101.468 102.547 102.754 102.829 104.335C104.122 110.818 115.149 112.606 116.724 116.724L116.731 116.731ZM143.192 120.924C145.413 120.924 146.018 119.453 146.238 118.635C146.348 118.312 146.348 117.776 146.348 117.452V94.2494H154.33V116.841C154.33 117.452 154.33 118.628 154.22 118.917C153.718 124.822 149.064 126.72 143.296 126.72C137.527 126.72 132.914 124.822 132.371 118.917C132.371 118.628 132.261 117.446 132.261 116.841V94.2494H140.243V117.452C140.243 117.886 140.243 118.312 140.353 118.635C140.353 119.46 140.999 120.924 143.179 120.924H143.192ZM208.759 120.601C211.09 120.601 211.805 119.13 212.018 118.312C212.128 117.989 212.128 117.452 212.128 117.164V112.619H208.869V107.999H220.007V116.414C220.007 117.061 220.007 117.452 219.897 118.525C219.361 124.293 214.417 126.294 208.869 126.294C203.28 126.294 198.378 124.286 197.842 118.525C197.732 117.452 197.732 117.054 197.732 116.414V103.166C197.732 102.664 197.842 101.592 197.842 101.09C198.557 95.1844 203.287 93.2869 208.869 93.2869C214.417 93.2869 219.251 95.1844 219.897 101.09C220.007 102.018 220.007 103.166 220.007 103.166V104.239H212.128V102.451C212.128 102.451 212.128 101.702 212.018 101.269C211.908 100.554 211.269 98.9794 208.869 98.9794C206.539 98.9794 205.934 100.451 205.721 101.269C205.611 101.702 205.611 102.238 205.611 102.774V117.171C205.611 117.562 205.611 117.996 205.721 118.319C205.721 119.144 206.546 120.608 208.766 120.608L208.759 120.601Z" fill="white"/>
</g>
<defs>
<clipPath id="clip0_21_263">
<rect width="220" height="220" fill="white"/>
</clipPath>
</defs>
</svg>
