<svg width="244" height="60" viewBox="0 0 244 60" fill="none" xmlns="http://www.w3.org/2000/svg">
<g clip-path="url(#clip0_21_267)">
<path d="M22.9808 1.58038C23.7468 1.12076 24.5128 0.661146 25.2788 0.354736C25.5852 1.12076 26.0449 1.88679 26.3513 2.65281C24.666 3.57204 22.9808 4.33806 21.4487 5.4105C17.159 8.01498 13.1756 11.0791 9.80512 14.9092C7.20064 17.9733 5.05577 21.6502 4.59615 25.7867C4.44295 28.238 4.90256 30.8425 6.43461 32.8342C7.81346 34.5194 9.95833 35.7451 12.1032 36.0515C14.5545 36.5111 17.159 36.2047 19.457 35.5919C24.2064 34.3662 28.4961 32.0681 32.6327 29.6169C35.084 28.0848 37.5352 26.5528 39.5269 24.4079C40.2929 23.4887 40.9057 22.4162 40.9057 21.1906C40.9057 20.2714 40.2929 19.3521 39.5269 19.0457C38.7609 18.5861 37.6884 18.4329 36.7692 18.5861C35.5436 18.8925 34.3179 19.5053 33.0923 20.1182C29.5686 21.9566 26.5045 24.4079 22.9808 26.2464C20.8359 27.3188 18.5378 28.3912 16.0865 28.3912C14.5545 28.3912 13.0224 27.7784 12.1032 26.5528C11.3372 25.6335 11.0308 24.5611 11.184 23.3355C11.3372 21.497 12.1032 19.6586 13.1756 18.2797C15.1673 15.522 17.925 13.5304 20.8359 11.8451C25.7384 8.6278 31.1006 6.02332 36.7692 4.49127C39.8333 3.72524 42.8974 3.26563 45.9615 3.41883C50.4045 3.57204 54.8474 4.95088 58.5243 7.55537C62.8141 10.6195 66.0314 15.522 66.3378 20.8842C66.7974 25.3271 65.4185 29.7701 63.4269 33.7534C61.8948 36.8175 59.75 39.5752 57.4519 42.0265C55.6134 44.0181 53.6218 45.8566 51.6301 47.5418C49.0256 49.8399 46.1147 51.8316 43.2038 53.67C40.2929 55.5085 37.0756 57.0405 33.8583 58.4194C32.9391 58.879 31.8666 59.3386 30.9474 59.645C30.3346 56.8873 29.4154 54.1297 28.8025 51.372C31.407 50.1463 34.0115 49.0739 36.616 47.695C39.5269 46.163 42.2846 44.1713 44.8891 42.1797C47.1871 40.3412 49.332 38.5028 51.3237 36.3579C54.6942 32.8342 57.4519 28.238 58.0647 23.3355C58.2179 21.497 58.2179 19.8118 57.7583 17.9733C56.6859 14.2964 54.0814 11.0791 50.5577 9.24062C47.6468 7.70857 44.2763 7.09575 41.0589 7.40216C36.3096 7.70857 31.8666 9.54703 27.7301 11.6919C25.7384 12.7643 23.9 13.8368 22.0615 15.0624C20.2231 16.1348 18.5378 17.3605 17.159 19.0457C16.5461 19.8118 16.0865 20.731 16.0865 21.6502C16.0865 22.263 16.5461 23.0291 17.159 23.1823C18.2314 23.6419 19.457 23.1823 20.5295 22.7227C25.5852 20.2714 29.875 16.4412 35.2372 14.6028C37.8416 13.6836 40.9057 13.5304 43.5102 14.6028C45.6551 15.522 47.3404 17.5137 47.8 19.8118C47.9532 21.1906 47.9532 22.5694 47.4936 23.7951C46.7275 25.7867 45.5019 27.472 43.9698 29.0041C42.1314 30.8425 39.9865 32.3746 37.8416 33.7534C34.7775 35.4387 31.8666 37.4303 28.6493 38.8092C25.8917 40.0348 22.8275 41.1072 19.9167 41.8733C16.5461 42.7925 13.0224 42.9457 9.65192 42.1797C6.28141 41.4136 3.52372 39.5752 1.99167 36.9707C0.61282 34.8258 0 32.2214 0 29.7701C0.153205 26.8592 0.766025 23.9483 1.99167 21.3438C4.13654 16.9009 7.35384 12.9175 11.184 9.70023C14.8609 6.48293 18.8442 3.72524 23.134 1.42717L22.9808 1.58038Z" fill="white"/>
<path d="M58.218 22.7228V19.9651C58.3712 20.8843 58.3712 21.8035 58.218 22.7228ZM81.8116 22.2632C83.6501 21.1907 85.795 21.1907 87.7866 21.6503C88.8591 21.8035 89.7783 22.5696 90.5443 23.3356C89.9315 23.9484 89.3187 24.5612 88.5527 25.1741C87.327 23.4888 84.7225 23.1824 83.0373 24.2548C81.9648 25.0209 81.6584 26.7061 82.4244 27.7785C83.1905 28.6978 84.4161 29.0042 85.6418 29.4638C87.0206 29.7702 88.5527 30.2298 89.6251 31.4555C90.6975 32.5279 90.8507 34.0599 90.6975 35.4388C90.5443 36.9708 89.6251 38.3497 88.2463 39.1157C86.8674 39.8817 85.3353 40.1881 83.8033 40.0349C81.9648 39.8817 80.1264 39.1157 79.0539 37.5837C79.6668 36.9708 80.4328 36.358 81.0456 35.8984C82.4244 37.8901 85.4886 38.5029 87.327 36.9708C88.3995 36.2048 88.7059 34.5196 87.7866 33.4471C86.8674 32.5279 85.4886 32.2215 84.2629 31.9151C82.8841 31.4555 81.5052 30.8426 80.586 29.617C79.82 28.6978 79.6668 27.3189 79.6668 26.0933C79.82 24.5612 80.7392 23.3356 81.9648 22.5696L81.8116 22.2632ZM158.874 22.2632C160.866 21.1907 163.317 21.0375 165.462 21.4971C167.147 21.8035 168.679 22.4164 169.751 23.642C169.139 24.2548 168.679 24.8676 168.066 25.4805C165.615 23.1824 161.325 22.876 158.874 25.3273C156.269 27.6253 155.963 31.9151 157.801 34.6728C158.874 36.2048 160.406 37.2772 162.244 37.5837C164.083 37.7369 165.921 37.5837 167.607 36.8176V31.9151H163.776V29.617H170.058V38.0433C170.058 38.3497 169.751 38.5029 169.445 38.6561C167.147 39.7285 164.696 40.0349 162.244 39.8817C159.64 39.7285 157.189 38.3497 155.81 36.2048C154.278 34.0599 153.818 31.3023 154.278 28.851C154.737 26.0933 156.423 23.642 159.027 22.4164L158.874 22.2632ZM103.567 21.6503H114.904V23.9484H105.865V29.1574H114.138V31.4555H105.865C105.865 33.2939 105.712 35.1324 105.865 36.9708C106.478 37.124 107.244 36.9708 107.857 36.9708H115.21V39.2689H103.414V21.6503H103.567ZM133.748 21.6503H135.893C138.344 27.4721 140.949 33.2939 143.4 39.2689C142.481 39.2689 141.562 39.4221 140.642 39.2689C140.03 37.8901 139.417 36.358 138.804 34.9792H130.531C129.918 36.358 129.458 37.8901 128.846 39.2689H126.088C128.539 33.4471 131.297 27.4721 133.748 21.6503ZM189.362 21.6503H191.507C193.958 27.4721 196.562 33.2939 199.014 39.2689C198.094 39.2689 197.175 39.4221 196.256 39.2689C195.49 37.8901 195.03 36.358 194.418 34.9792H186.144C185.532 36.358 185.072 37.8901 184.459 39.2689C183.54 39.4221 182.621 39.2689 181.701 39.2689C184.306 33.4471 186.91 27.4721 189.515 21.6503H189.362ZM206.368 21.6503H220.156V23.9484H214.487V39.2689H212.036V23.9484H206.368V21.6503ZM232.106 21.6503H243.443V23.9484H234.557V29.1574H242.984V31.4555H234.557V36.9708H243.903V39.2689H232.106V21.6503Z" fill="white"/>
<path d="M131.45 32.8343C132.523 30.2299 133.595 27.4722 134.821 24.8677C135.893 27.4722 136.966 30.2299 138.038 32.8343H131.45ZM187.064 32.8343C188.136 30.2299 189.209 27.4722 190.434 24.8677C191.507 27.4722 192.579 30.2299 193.652 32.8343H187.064Z" fill="#432D2D"/>
</g>
<defs>
<clipPath id="clip0_21_267">
<rect width="243.903" height="60" fill="white"/>
</clipPath>
</defs>
</svg>
