<svg width="150" height="150" viewBox="0 0 150 150" fill="none" xmlns="http://www.w3.org/2000/svg">
<g clip-path="url(#clip0_21_265)">
<path d="M53.4375 61.8C59.1938 61.8 63.8 63.2376 67.3188 66.4376C69.725 68.6188 71.0688 71.7251 71.0313 74.9813C71.0253 76.5884 70.6933 78.1777 70.0551 79.6527C69.417 81.1277 68.4861 82.4579 67.3188 83.5626C64.025 86.5876 58.8938 88.2001 53.4438 88.2001C47.9938 88.2001 42.9438 86.5876 39.6 83.5626C38.3919 82.4872 37.4298 81.164 36.7795 79.6831C36.1291 78.2022 35.8057 76.5985 35.8313 74.9813C35.8313 71.7438 37.1938 68.6376 39.6 66.4376C42.725 63.6001 48.25 61.8 53.4375 61.8ZM53.4563 84.7376C56.3375 84.7376 59.0063 83.7313 60.8813 81.8751C62.7563 80.0001 63.5875 77.7501 63.5875 74.9813C63.5875 72.3313 62.6625 69.8501 60.8813 68.0876C59.0438 66.2751 56.3 65.25 53.4563 65.25C50.6125 65.25 47.875 66.2688 46.0188 68.0876C44.2375 69.8501 43.3063 72.3313 43.3063 74.9813C43.2682 77.5466 44.2428 80.0235 46.0188 81.8751C47.875 83.7126 50.6 84.7376 53.4563 84.7376ZM23.2 72.4376C24.2 72.6917 25.1708 73.0313 26.1125 73.4563C26.9853 73.86 27.7857 74.4048 28.4813 75.0688C29.7125 76.3563 30.4125 78.0813 30.3938 79.8626C30.4072 80.8019 30.1998 81.7313 29.7884 82.5759C29.377 83.4204 28.773 84.1566 28.025 84.7251C26.6993 85.726 25.1956 86.4662 23.5938 86.9063C21.1811 87.6662 18.6601 88.0252 16.1313 87.9688C13.9313 87.9688 12.7188 87.7126 11.05 87.3626L10.5688 87.2626C8.7297 86.8566 6.93393 86.2748 5.20627 85.5251C5.129 85.4727 5.03703 85.4464 4.94377 85.4501C4.8067 85.4533 4.67636 85.5101 4.58059 85.6082C4.48482 85.7063 4.43123 85.838 4.43127 85.9751V87.2438H0.756265V78.0063H4.03127C4.05292 78.9425 4.35082 79.8514 4.88752 80.6188C6.21252 82.2438 7.63752 82.8688 8.99377 83.3688C11.2875 84.1188 13.6938 84.5188 16.0938 84.5938C19.55 84.5938 21.5688 83.7563 22.0063 83.5751L22.0625 83.5501L22.1 83.5376C22.4875 83.3938 24.05 82.8251 24.05 81.0876C24.05 79.3751 22.5875 79.0001 21.6313 78.7563L21.4938 78.7251C20.4313 78.4376 17.9813 78.1751 15.3063 77.8938L14.3563 77.7938C11.8479 77.5372 9.35184 77.1723 6.87502 76.7001C3.76252 76.0126 2.53752 74.8751 1.77502 74.1688L1.72502 74.1188C0.61347 72.9336 -0.00355451 71.3687 1.54047e-05 69.7438C1.54047e-05 66.6438 2.12502 64.7688 4.73752 63.6188C7.57958 62.4055 10.6411 61.7906 13.7313 61.8126C18.8563 61.8313 23.025 63.5001 24.525 64.2751C25.1313 64.6001 25.4313 64.2001 25.4313 63.9001V62.9688H28.725V71.0188H25.775C25.5127 69.8232 24.8676 68.7458 23.9375 67.9501C23.3715 67.4959 22.7472 67.1197 22.0813 66.8313C19.6092 65.7847 16.9467 65.2633 14.2625 65.3001C11.4938 65.3001 8.84377 65.8313 7.51252 66.6438C6.68335 67.1605 6.26668 67.798 6.26252 68.5563C6.26252 69.6376 7.17502 70.0688 7.63752 70.2001C8.86252 70.5751 11.5875 70.8438 13.7063 71.0563L14.9813 71.1876C17.025 71.3938 21.3063 71.9626 23.2 72.4376ZM136.744 66.2063V63.2126H150V66.1501H147.025C145.95 66.1501 145.513 66.3563 144.7 67.2688L135.781 77.4563C135.688 77.5821 135.646 77.7383 135.663 77.8938V82.5313C135.676 82.747 135.701 82.9619 135.738 83.1751C135.791 83.311 135.875 83.4326 135.983 83.5303C136.092 83.628 136.222 83.6989 136.363 83.7376C136.632 83.776 136.903 83.7969 137.175 83.8001H140.213V86.7376H124.125V83.8001H127C127.272 83.7969 127.543 83.776 127.813 83.7376C127.956 83.698 128.089 83.627 128.201 83.5297C128.313 83.4324 128.403 83.3112 128.463 83.1751C128.492 82.9678 128.51 82.7592 128.519 82.5501V77.9126C128.519 77.7563 128.519 77.7563 128.313 77.5126L119.494 67.5001C119.019 67.0063 118.206 66.2126 116.956 66.2126H114.094V63.275H130.269V66.2126H128.319C127.881 66.2126 127.581 66.6501 127.956 67.1251L133.45 73.6938C133.506 73.7688 133.544 73.7688 133.619 73.7126C133.694 73.6563 139.206 67.1813 139.244 67.1251C139.29 67.0656 139.324 66.9974 139.343 66.9246C139.363 66.8518 139.367 66.7759 139.357 66.7012C139.346 66.6266 139.321 66.5549 139.282 66.4902C139.243 66.4256 139.192 66.3695 139.131 66.3251C139.022 66.2484 138.89 66.2089 138.756 66.2126L136.744 66.2063ZM97.4688 66.1876H100.5C101.881 66.1876 102.125 66.7188 102.144 68.0063L102.319 77.7938L86.1813 63.2688H74.65V66.2063H77.225C79.0813 66.2063 79.2125 67.2313 79.2125 68.1438V81.9751C79.2125 82.7751 79.2188 83.8188 78.075 83.8188H74.9125V86.7376H88.4375V83.8001H85.1375C83.8125 83.8001 83.7625 83.1938 83.7375 81.9063V70.1438L102.319 86.7126H107.05L106.8 67.9876C106.825 66.6251 106.919 66.1688 108.319 66.1688H111.275V63.2313H97.4688V66.1876Z" fill="white"/>
</g>
<defs>
<clipPath id="clip0_21_265">
<rect width="150" height="150" fill="white"/>
</clipPath>
</defs>
</svg>
