<svg width="128" height="75" viewBox="0 0 128 75" fill="none" xmlns="http://www.w3.org/2000/svg">
<rect x="2.5" y="2.5" width="123" height="69.1818" rx="3.5" stroke="white" stroke-width="5"/>
<path opacity="0.98" d="M18.5711 50.9963C17.9957 50.9365 17.5354 50.757 17.5354 50.6075C17.5354 50.4579 18.2259 45.6725 19.0314 39.9598C19.8753 34.2472 20.5274 29.4019 20.5274 29.1626C20.5274 28.8336 21.4481 28.7738 25.5142 28.8635C28.2377 28.9234 30.6543 29.1028 30.8461 29.2225C31.0379 29.372 30.9228 31.2563 30.5009 33.8883C30.1173 36.3109 29.9255 38.3746 30.0406 38.4644C30.1557 38.5541 31.2297 37.2082 32.4189 35.4436C33.608 33.7088 35.0657 31.5853 35.6794 30.7478L36.7918 29.2225H39.477C42.3923 29.2225 52.1356 29.7309 52.3274 29.8505C52.4041 29.9104 52.711 31.7946 53.0562 34.0378C53.7467 38.7934 53.9002 39.4514 54.3221 39.4514C54.4755 39.4514 54.8208 38.8831 55.0893 38.1952C55.3578 37.5073 56.1634 35.4136 56.8922 33.4995L58.2348 30.0599H68.9754L68.4384 31.4656C68.1315 32.2433 66.1752 36.8792 64.027 41.7843C60.5363 49.8597 60.076 50.6972 59.2321 50.8767C58.7334 50.9963 55.6263 51.086 52.3658 51.1159C47.8777 51.1458 46.4584 51.0561 46.4584 50.7869C46.4584 50.5776 45.9597 46.7193 45.346 42.2329C44.7322 37.7466 44.2336 33.8584 44.2336 33.6789C44.2336 32.5424 43.0828 34.1575 38.0193 42.2329L32.4189 51.1757L26.0128 51.1458C22.4838 51.1159 19.1465 51.0561 18.5711 50.9963Z" fill="white"/>
<path opacity="0.98" d="M20.9109 26.4408C20.9109 26.2015 21.1027 24.736 21.3328 23.2106L21.7548 20.459H27.3169C32.3804 20.459 32.879 20.5188 32.879 20.9674C32.879 21.3263 32.0351 25.9024 31.7666 26.8296C31.7666 26.8595 29.3116 26.8894 26.3196 26.8894C21.6781 26.8894 20.9109 26.8296 20.9109 26.4408Z" fill="white"/>
<path opacity="0.98" d="M40.0141 24.3173C40.9731 22.9115 41.932 21.5357 42.1622 21.2665C42.4691 20.8777 43.3513 20.7581 46.6503 20.6683C50.7547 20.5487 50.7931 20.5786 51.215 21.2964C51.4452 21.6853 51.7521 23.1209 51.8288 24.4369L52.0206 26.8595H38.2112L40.0141 24.3173Z" fill="white"/>
<path opacity="0.98" d="M59.9227 26.74C59.8076 26.6503 60.2296 25.2745 60.8817 23.6594L62.0325 20.7283H67.5946C70.6633 20.7283 73.1567 20.818 73.1567 20.9376C73.1567 21.0573 72.6197 22.4331 71.9676 24.0183L70.7784 26.8895H65.4848C62.4928 26.8895 59.9994 26.8297 59.9227 26.74Z" fill="white"/>
<path opacity="0.98" d="M64.6025 50.9962C64.1421 50.9364 63.7585 50.7868 63.7585 50.6672C63.7585 50.5475 65.7149 45.8817 68.1315 40.2588L72.5045 30.0598L77.6447 30.2393C84.8562 30.4785 86.8126 30.658 86.6208 31.0767C86.2372 31.8843 82.6314 41.1561 82.4396 41.9337L82.2094 42.7712L85.3165 42.6216C90.6102 42.3524 93.0268 41.5748 96.249 39.0026C98.5122 37.2081 99.8931 34.9948 100.162 32.7516C100.353 31.2263 100.238 30.8374 99.3945 29.7308C98.8191 28.9532 97.8217 28.1755 96.8244 27.7568C95.2133 27.039 94.9831 27.039 85.4316 26.9493C80.0613 26.8894 75.3047 26.7997 74.8444 26.71C74.0389 26.5604 74.0389 26.5604 75.3047 23.5695L76.609 20.5786L89.8046 20.6683L103 20.7581L105.225 21.6254C109.79 23.42 112.283 26.2613 112.552 30.0897C112.782 33.0507 112.168 35.1743 110.097 38.3745C108.677 40.6177 107.757 41.5449 104.765 43.8778C98.6656 48.6334 93.8323 50.4279 85.6618 50.8765C80.8669 51.1756 66.2135 51.2355 64.6025 50.9962Z" fill="white"/>
</svg>
