<svg width="71" height="64" viewBox="0 0 71 64" fill="none" xmlns="http://www.w3.org/2000/svg">
<path d="M9.15088 56H14.9956V40H9.15088V48V56ZM36.7965 58.6666L28.234 56.96L19.6714 55.12C19.1758 55.0318 18.7306 54.7862 18.4148 54.4266C18.0882 54.0776 17.9117 53.6322 17.918 53.1733V42.5066C17.9263 42.0501 18.1011 41.609 18.4148 41.2533C18.7412 40.905 19.1818 40.6619 19.6714 40.56L33.6404 38.9866L47.6385 37.3866L48.0769 38.88L48.5153 40.3466C48.523 40.8383 48.3704 41.3209 48.0769 41.7333C47.8083 42.1645 47.4 42.5092 46.908 42.72L41.0632 44.0533L35.2185 45.3866L39.9527 47.1466L44.7162 48.88L51.35 47.1733L57.8084 45.3333C58.3823 45.2009 58.9902 45.2774 59.5034 45.5466C59.7618 45.674 59.9887 45.8487 60.1697 46.0598C60.3508 46.2708 60.4821 46.5138 60.5554 46.7733L61.1107 48.8266L61.6952 50.8533C61.8277 51.3601 61.7441 51.8939 61.4614 52.3466C61.1608 52.8033 60.6796 53.1374 60.1171 53.28L49.5089 55.9466L38.9007 58.6133C38.5514 58.654 38.1979 58.654 37.8486 58.6133C37.5035 58.6838 37.1481 58.7018 36.7965 58.6666ZM26.6851 10.6666L20.8404 16L14.9956 21.3333L20.8404 26.6666L26.6851 32L28.7308 30.1333L30.7764 28.2666L26.9774 24.8L23.1783 21.3333L26.9774 17.8666L30.7764 14.4L28.7308 12.5333L26.6851 10.6666ZM44.2194 10.6666L42.1737 12.5333L40.128 14.4L43.9271 17.8666L47.7262 21.3333L43.9271 24.8L40.128 28.2666L42.1737 30.1333L44.2194 32L50.0641 26.6666L55.9089 21.3333L50.0641 16L44.2194 10.6666Z" fill="white"/>
</svg>
