<svg width="71" height="64" viewBox="0 0 71 64" fill="none" xmlns="http://www.w3.org/2000/svg">
<g clip-path="url(#clip0_21_314)">
<path d="M17.0803 54.9334C21.5915 57.9286 26.9009 59.7641 32.4546 60.2485C38.0082 60.7329 43.6025 59.8484 48.6538 57.6872C53.7051 55.526 58.0282 52.1674 61.172 47.9619C64.3158 43.7563 66.1651 38.8579 66.5269 33.7778H36.2901L17.0803 54.9334Z" fill="white"/>
<path d="M66.527 30.2222C66.4631 29.2633 66.3461 28.308 66.1763 27.36H43.6935C42.4336 27.3698 41.193 27.0766 40.0969 26.5097C39.0007 25.9428 38.0876 25.1224 37.4496 24.131C36.8115 23.1396 36.471 22.0123 36.4624 20.8626C36.4539 19.7129 36.7775 18.5814 37.4006 17.5822L45.3105 5.13774C38.6131 3.16249 31.3802 3.31368 24.7889 5.5667C18.1977 7.81972 12.636 12.0419 9.00905 17.5462C5.3821 23.0506 3.90337 29.5129 4.81351 35.8817C5.72365 42.2504 8.96907 48.1507 14.0216 52.6222L34.4588 30.2222H66.527Z" fill="white"/>
<path d="M52.6943 2.02669L41.5503 19.5556C41.291 19.9028 41.1422 20.3088 41.1203 20.7285C41.0983 21.1482 41.2042 21.5653 41.4261 21.9334C41.648 22.3016 41.9773 22.6065 42.3775 22.8144C42.7777 23.0223 43.2331 23.125 43.6934 23.1111H66.0008C66.461 23.125 66.9165 23.0223 67.3167 22.8144C67.7168 22.6065 68.0461 22.3016 68.2681 21.9334C68.49 21.5653 68.5958 21.1482 68.5739 20.7285C68.552 20.3088 68.4032 19.9028 68.1439 19.5556L56.9999 2.02669C56.7801 1.68368 56.4658 1.39915 56.0881 1.20142C55.7104 1.0037 55.2825 0.899658 54.8471 0.899658C54.4117 0.899658 53.9838 1.0037 53.6061 1.20142C53.2284 1.39915 52.914 1.68368 52.6943 2.02669Z" fill="white"/>
</g>
<defs>
<clipPath id="clip0_21_314">
<rect width="70.137" height="64" fill="white" transform="translate(0.383789)"/>
</clipPath>
</defs>
</svg>
