<svg width="71" height="64" viewBox="0 0 71 64" fill="none" xmlns="http://www.w3.org/2000/svg">
<path d="M22.397 20H48.6984V44H22.397V20Z" fill="white"/>
<path d="M66.2327 24.75V19.25H61.8491V11C61.8491 10.2044 61.5027 9.44129 60.8862 8.87868C60.2696 8.31607 59.4334 8 58.5614 8H49.5203V4H43.4929V8H38.5614V4H32.534V8H27.6025V4H21.5751V8H12.534C11.6621 8 10.8259 8.31607 10.2093 8.87868C9.59273 9.44129 9.24636 10.2044 9.24636 11V19.25H4.86279V24.75H9.24636V29.25H4.86279V34.75H9.24636V39.25H4.86279V44.75H9.24636V53C9.24636 53.7957 9.59273 54.5587 10.2093 55.1213C10.8259 55.6839 11.6621 56 12.534 56H21.5751V60H27.6025V56H32.534V60H38.5614V56H43.4929V60H49.5203V56H58.5614C59.4334 56 60.2696 55.6839 60.8862 55.1213C61.5027 54.5587 61.8491 53.7957 61.8491 53V44.75H66.2327V39.25H61.8491V34.75H66.2327V29.25H61.8491V24.75H66.2327ZM18.0135 16H53.082V48H18.0135V16Z" fill="white"/>
</svg>
