<svg width="187" height="129" viewBox="0 0 187 129" fill="none" xmlns="http://www.w3.org/2000/svg">
<path d="M131.278 103.47C125.172 103.47 119.653 102.061 114.722 99.2425C109.868 96.3461 105.993 92.432 103.097 87.5003C100.279 82.5685 98.8695 77.0106 98.8695 70.8263C98.8695 64.6421 100.2 59.1233 102.862 54.2698C105.523 49.3381 109.164 45.4631 113.782 42.645C118.401 39.7486 123.646 38.3004 129.517 38.3004C134.37 38.3004 138.793 39.318 142.785 41.3534C146.856 43.3887 150.222 46.1285 152.884 49.5729V16.6947C152.884 15.0508 153.393 13.7592 154.41 12.8198C155.428 11.8021 156.72 11.2933 158.285 11.2933C159.929 11.2933 161.26 11.8021 162.278 12.8198C163.295 13.7592 163.804 15.0508 163.804 16.6947V71.0612C163.726 77.1671 162.238 82.686 159.342 87.6177C156.524 92.5494 152.649 96.4244 147.717 99.2425C142.864 102.061 137.384 103.47 131.278 103.47ZM131.278 93.8411C135.505 93.8411 139.263 92.8626 142.551 90.9055C145.838 88.8702 148.422 86.1303 150.3 82.686C152.257 79.1633 153.236 75.2101 153.236 70.8263C153.236 66.4426 152.257 62.5285 150.3 59.0841C148.422 55.6397 145.838 52.939 142.551 50.982C139.263 48.9467 135.505 47.929 131.278 47.929C127.207 47.929 123.489 48.9467 120.123 50.982C116.757 52.939 114.095 55.6397 112.138 59.0841C110.259 62.5285 109.32 66.4426 109.32 70.8263C109.32 75.2101 110.259 79.1633 112.138 82.686C114.095 86.1303 116.757 88.8702 120.123 90.9055C123.489 92.8626 127.207 93.8411 131.278 93.8411Z" fill="#C1C1C1"/>
<path d="M54.7187 78.5762C53.1531 78.5762 51.8614 78.0674 50.8438 77.0497C49.8261 75.9538 49.3173 74.623 49.3173 73.0573V16.6947C49.3173 15.0508 49.8261 13.7592 50.8438 12.8198C51.8614 11.8021 53.1531 11.2933 54.7187 11.2933C56.3626 11.2933 57.6542 11.8021 58.5936 12.8198C59.6113 13.7592 60.1201 15.0508 60.1201 16.6947V73.0573C60.1201 74.623 59.6113 75.9538 58.5936 77.0497C57.6542 78.0674 56.3626 78.5762 54.7187 78.5762ZM103.919 103.117C102.353 103.117 101.022 102.609 99.9262 101.591C98.9086 100.495 98.3997 99.2034 98.3997 97.716V68.1256C98.3997 63.507 97.5386 59.7495 95.8164 56.8531C94.0942 53.8784 91.7849 51.6865 88.8885 50.2774C85.9921 48.7901 82.6652 48.0464 78.9076 48.0464C75.385 48.0464 72.2146 48.751 69.3965 50.16C66.5783 51.5691 64.3082 53.4478 62.586 55.7963C60.9421 58.1447 60.1201 60.8454 60.1201 63.8984H53.0748C53.1531 58.9667 54.4056 54.5829 56.8323 50.7471C59.259 46.8331 62.5468 43.7801 66.6957 41.5882C70.8447 39.318 75.5024 38.183 80.669 38.183C86.1487 38.183 91.0413 39.3572 95.3468 41.7056C99.6522 43.9758 103.057 47.3419 105.562 51.8039C108.067 56.266 109.32 61.7065 109.32 68.1256V97.716C109.32 99.2034 108.772 100.495 107.676 101.591C106.658 102.609 105.406 103.117 103.919 103.117ZM54.7187 103.117C53.1531 103.117 51.8614 102.609 50.8438 101.591C49.8261 100.573 49.3173 99.2816 49.3173 97.716V44.1715C49.3173 42.5276 49.8261 41.2359 50.8438 40.2966C51.8614 39.2789 53.1531 38.7701 54.7187 38.7701C56.3626 38.7701 57.6542 39.2789 58.5936 40.2966C59.6113 41.2359 60.1201 42.5276 60.1201 44.1715V97.716C60.1201 99.2816 59.6113 100.573 58.5936 101.591C57.6542 102.609 56.3626 103.117 54.7187 103.117Z" fill="#ACACAC"/>
<path d="M0 66.1479H10.8028V64.6214C10.8028 61.5684 11.6248 58.8677 13.2687 56.5192C14.9909 54.1708 17.2611 52.292 20.0792 50.883C22.8973 49.4739 26.0677 48.7694 29.5904 48.7694C33.3479 48.7694 36.6749 49.513 39.5713 51.0004C42.4677 52.4095 44.777 54.6013 46.4992 57.576C48.2214 60.4725 49.0825 64.23 49.0825 68.8486V98.4389C49.0825 99.9263 49.5913 101.218 50.609 102.314C51.7049 103.332 53.0357 103.84 54.6013 103.84C56.0887 103.84 57.3412 103.332 58.3588 102.314C59.4548 101.218 60.0027 99.9263 60.0027 98.4389V68.8486C60.0027 62.4295 58.7502 56.9889 56.2452 52.5269C53.7402 48.0648 50.335 44.6987 46.0295 42.4286C41.724 40.0801 36.8314 38.9059 31.3517 38.9059C26.1851 38.9059 21.5274 40.041 17.3785 42.3112C14.8724 43.6351 12.6806 45.2732 10.8028 47.2255V17.4177C10.8028 15.7737 10.294 14.4821 9.27635 13.5427C8.33698 12.5251 7.04533 12.0162 5.40142 12.0162C3.83579 12.0162 2.54415 12.5251 1.52649 13.5427C0.50883 14.4821 0 15.7737 0 17.4177V66.1479Z" fill="#464646"/>
<path d="M29.7234 115.188V112.885H39.1599V115.188H35.7627V125.719H33.1583V115.188H29.7234ZM41.9411 125.719V112.885H50.2452V115.15H44.5456V118.151H49.1128V120.378H44.5456V123.454H50.2452V125.719H41.9411ZM61.5657 125.511C60.2321 125.801 59.0305 125.945 57.961 125.945C56.8915 125.945 56.036 125.813 55.3943 125.549C54.7526 125.285 54.2493 124.863 53.8845 124.285C53.5196 123.706 53.2679 123.026 53.1295 122.246C52.9911 121.466 52.9219 120.485 52.9219 119.302C52.9219 116.824 53.2679 115.1 53.9599 114.131C54.6645 113.15 55.9542 112.659 57.8289 112.659C58.911 112.659 60.1629 112.829 61.5846 113.168L61.5091 115.245C60.2635 115.056 59.2255 114.961 58.3951 114.961C57.5773 114.961 56.9922 115.075 56.6399 115.301C56.2876 115.515 56.0234 115.93 55.8472 116.547C55.6837 117.163 55.6019 118.214 55.6019 119.699C55.6019 121.183 55.7717 122.215 56.1115 122.794C56.4638 123.36 57.1558 123.643 58.1875 123.643C59.2318 123.643 60.339 123.555 61.5091 123.379L61.5657 125.511ZM72.1906 125.719V120.397H67.4158V125.719H64.8113V112.885H67.4158V118.132H72.1906V112.885H74.7951V125.719H72.1906ZM78.7161 125.719V112.885H83.1135L86.2087 123.454H86.3974V112.885H89.0019V125.719H84.7177L81.5093 115.15H81.3206V125.719H78.7161ZM95.5953 122.699C95.9728 123.354 96.6711 123.681 97.6902 123.681C98.7094 123.681 99.4014 123.354 99.7662 122.699C100.144 122.032 100.332 120.925 100.332 119.378C100.332 117.818 100.144 116.685 99.7662 115.981C99.3888 115.276 98.6968 114.924 97.6902 114.924C96.6837 114.924 95.9917 115.276 95.6142 115.981C95.2367 116.685 95.048 117.818 95.048 119.378C95.048 120.925 95.2304 122.032 95.5953 122.699ZM101.805 124.36C101.012 125.417 99.6404 125.945 97.6902 125.945C95.74 125.945 94.3623 125.417 93.557 124.36C92.7644 123.291 92.368 121.624 92.368 119.359C92.368 117.094 92.7644 115.414 93.557 114.32C94.3623 113.213 95.74 112.659 97.6902 112.659C99.6404 112.659 101.012 113.213 101.805 114.32C102.61 115.414 103.012 117.094 103.012 119.359C103.012 121.624 102.61 123.291 101.805 124.36ZM113.682 125.719H106.378V112.885H108.983V123.416H113.682V125.719ZM118.963 122.699C119.341 123.354 120.039 123.681 121.058 123.681C122.077 123.681 122.769 123.354 123.134 122.699C123.512 122.032 123.7 120.925 123.7 119.378C123.7 117.818 123.512 116.685 123.134 115.981C122.757 115.276 122.065 114.924 121.058 114.924C120.051 114.924 119.359 115.276 118.982 115.981C118.605 116.685 118.416 117.818 118.416 119.378C118.416 120.925 118.598 122.032 118.963 122.699ZM125.172 124.36C124.38 125.417 123.008 125.945 121.058 125.945C119.108 125.945 117.73 125.417 116.925 124.36C116.132 123.291 115.736 121.624 115.736 119.359C115.736 117.094 116.132 115.414 116.925 114.32C117.73 113.213 119.108 112.659 121.058 112.659C123.008 112.659 124.38 113.213 125.172 114.32C125.978 115.414 126.38 117.094 126.38 119.359C126.38 121.624 125.978 123.291 125.172 124.36ZM135.087 121.114V118.849H138.824V125.511C137.025 125.801 135.565 125.945 134.445 125.945C132.445 125.945 131.067 125.411 130.312 124.341C129.57 123.272 129.199 121.573 129.199 119.246C129.199 116.918 129.589 115.238 130.369 114.206C131.149 113.175 132.476 112.659 134.351 112.659C135.521 112.659 136.786 112.791 138.145 113.055L138.824 113.187L138.748 115.207C137.239 115.043 135.999 114.961 135.031 114.961C134.074 114.961 133.401 115.075 133.011 115.301C132.621 115.528 132.332 115.949 132.143 116.566C131.967 117.17 131.879 118.214 131.879 119.699C131.879 121.171 132.061 122.202 132.426 122.794C132.791 123.385 133.546 123.681 134.691 123.681L136.257 123.605V121.114H135.087ZM142.416 125.719V112.885H145.021V125.719H142.416ZM148.949 125.719V112.885H157.253V115.15H151.553V118.151H156.12V120.378H151.553V123.454H157.253V125.719H148.949ZM164.476 114.924C163.104 114.924 162.418 115.377 162.418 116.283C162.418 116.685 162.588 116.993 162.928 117.207C163.268 117.421 164.06 117.729 165.306 118.132C166.564 118.535 167.445 118.994 167.948 119.51C168.451 120.013 168.703 120.793 168.703 121.85C168.703 123.196 168.294 124.215 167.476 124.907C166.659 125.599 165.589 125.945 164.268 125.945C163.287 125.945 162.085 125.794 160.663 125.493L159.984 125.36L160.248 123.341C161.934 123.567 163.224 123.681 164.117 123.681C165.451 123.681 166.118 123.127 166.118 122.02C166.118 121.617 165.96 121.303 165.646 121.076C165.344 120.85 164.734 120.604 163.815 120.34C162.356 119.925 161.324 119.434 160.72 118.868C160.129 118.289 159.833 117.49 159.833 116.471C159.833 115.188 160.223 114.232 161.003 113.603C161.783 112.973 162.853 112.659 164.211 112.659C165.142 112.659 166.325 112.785 167.759 113.036L168.439 113.168L168.231 115.226C166.457 115.024 165.205 114.924 164.476 114.924Z" fill="white"/>
</svg>
