<svg width="24" height="24" viewBox="0 0 24 24" fill="none" xmlns="http://www.w3.org/2000/svg">
<g clip-path="url(#clip0_76_16)">
<path d="M16.6562 1.5H7.46875C6.38184 1.5 5.5 2.38184 5.5 3.46875V20.5312C5.5 21.6182 6.38184 22.5 7.46875 22.5H16.6562C17.7432 22.5 18.625 21.6182 18.625 20.5312V3.46875C18.625 2.38184 17.7432 1.5 16.6562 1.5ZM12.0625 21.1875C11.3365 21.1875 10.75 20.601 10.75 19.875C10.75 19.149 11.3365 18.5625 12.0625 18.5625C12.7885 18.5625 13.375 19.149 13.375 19.875C13.375 20.601 12.7885 21.1875 12.0625 21.1875ZM16.6562 16.7578C16.6562 17.0285 16.4348 17.25 16.1641 17.25H7.96094C7.69023 17.25 7.46875 17.0285 7.46875 16.7578V3.96094C7.46875 3.69023 7.69023 3.46875 7.96094 3.46875H16.1641C16.4348 3.46875 16.6562 3.69023 16.6562 3.96094V16.7578Z" fill="white"/>
</g>
<defs>
<clipPath id="clip0_76_16">
<rect width="13.125" height="21" fill="white" transform="translate(5.5 1.5)"/>
</clipPath>
</defs>
</svg>
